<svg xmlns="http://www.w3.org/2000/svg" xmlns:xlink="http://www.w3.org/1999/xlink" width="143" zoomAndPan="magnify" viewBox="0 0 107.25 107.249999" height="143" preserveAspectRatio="xMidYMid meet" version="1.2"><defs><clipPath id="3400694f25"><path d="M 74.480469 31.621094 L 94.589844 31.621094 L 94.589844 53.964844 L 74.480469 53.964844 Z M 74.480469 31.621094 "/></clipPath><clipPath id="3dc836d741"><path d="M 0 0 L 105.761719 0 L 105.761719 105.761719 L 0 105.761719 Z M 0 0 "/></clipPath></defs><g id="a0b923d28e"><path style=" stroke:none;fill-rule:nonzero;fill:#333333;fill-opacity:1;" d="M 82.984375 44.703125 C 82.972656 44.667969 82.632812 43.816406 81.796875 43.078125 C 81.023438 42.394531 79.667969 41.691406 77.589844 42.210938 C 77.492188 42.234375 77.429688 42.332031 77.449219 42.433594 C 77.464844 42.507812 77.820312 44.257812 79.273438 45.046875 C 79.730469 45.296875 80.242188 45.421875 80.804688 45.421875 C 81.433594 45.421875 82.128906 45.265625 82.878906 44.953125 C 82.976562 44.914062 83.023438 44.800781 82.984375 44.703125 Z M 79.457031 44.710938 C 78.417969 44.144531 77.996094 42.988281 77.871094 42.539062 C 79.320312 42.222656 80.554688 42.496094 81.535156 43.359375 C 82.089844 43.84375 82.410156 44.394531 82.550781 44.671875 C 81.320312 45.144531 80.28125 45.15625 79.457031 44.710938 Z M 79.457031 44.710938 "/><path style=" stroke:none;fill-rule:nonzero;fill:#333333;fill-opacity:1;" d="M 86.238281 38.871094 C 86.925781 37.011719 85.90625 35.167969 85.863281 35.089844 C 85.8125 35 85.703125 34.96875 85.609375 35.015625 C 84.210938 35.742188 83.265625 36.75 82.796875 38.003906 C 82.761719 38.105469 82.808594 38.214844 82.90625 38.253906 C 83.003906 38.289062 83.113281 38.242188 83.152344 38.140625 C 83.566406 37.027344 84.394531 36.125 85.617188 35.449219 C 85.835938 35.925781 86.394531 37.355469 85.882812 38.738281 C 85.492188 39.785156 84.578125 40.597656 83.15625 41.152344 C 83.179688 40.734375 83.175781 39.957031 82.898438 39.085938 C 82.527344 37.910156 81.574219 36.351562 79.152344 35.589844 C 79.054688 35.558594 78.953125 35.613281 78.917969 35.710938 C 78.886719 35.792969 78.195312 37.785156 79.191406 39.488281 C 79.839844 40.605469 81.054688 41.316406 82.796875 41.613281 C 83.152344 42.558594 83.328125 43.476562 83.332031 44.34375 C 83.332031 44.949219 83.234375 46.46875 82.332031 47.480469 C 82.261719 47.5625 82.265625 47.683594 82.34375 47.753906 C 82.382812 47.789062 82.425781 47.804688 82.472656 47.804688 C 82.523438 47.804688 82.574219 47.78125 82.613281 47.742188 C 83.605469 46.628906 83.710938 44.996094 83.710938 44.34375 C 83.710938 43.457031 83.53125 42.519531 83.183594 41.554688 C 84.773438 40.957031 85.800781 40.054688 86.238281 38.871094 Z M 79.519531 39.296875 C 78.777344 38.027344 79.085938 36.527344 79.222656 36.019531 C 80.929688 36.605469 82.042969 37.667969 82.53125 39.1875 C 82.8125 40.066406 82.796875 40.863281 82.769531 41.21875 C 81.191406 40.933594 80.097656 40.289062 79.519531 39.296875 Z M 79.519531 39.296875 "/><path style=" stroke:none;fill-rule:nonzero;fill:#333333;fill-opacity:1;" d="M 89.34375 44.777344 C 89.707031 44.226562 89.972656 43.300781 89.699219 42.566406 C 89.535156 42.132812 89.207031 41.835938 88.746094 41.710938 C 88.070312 41.527344 87.441406 41.839844 86.878906 42.644531 C 86.316406 41.839844 85.691406 41.527344 85.011719 41.710938 C 84.550781 41.835938 84.222656 42.128906 84.0625 42.566406 C 83.789062 43.300781 84.054688 44.226562 84.414062 44.777344 C 85.066406 45.769531 86.046875 46.722656 86.757812 47.34375 C 86.792969 47.375 86.835938 47.390625 86.878906 47.390625 C 86.925781 47.390625 86.96875 47.375 87.003906 47.34375 C 87.714844 46.71875 88.699219 45.765625 89.34375 44.777344 Z M 86.878906 46.941406 C 86.203125 46.335938 85.324219 45.464844 84.730469 44.5625 C 84.410156 44.078125 84.203125 43.28125 84.417969 42.699219 C 84.535156 42.382812 84.769531 42.175781 85.109375 42.082031 C 85.199219 42.058594 85.285156 42.046875 85.371094 42.046875 C 85.839844 42.046875 86.292969 42.398438 86.71875 43.097656 C 86.753906 43.152344 86.816406 43.1875 86.878906 43.1875 L 86.882812 43.1875 C 86.945312 43.1875 87.007812 43.152344 87.042969 43.097656 C 87.546875 42.273438 88.085938 41.929688 88.648438 42.082031 C 88.992188 42.175781 89.222656 42.382812 89.34375 42.703125 C 89.558594 43.28125 89.347656 44.078125 89.03125 44.5625 C 88.441406 45.457031 87.558594 46.332031 86.878906 46.941406 Z M 86.878906 46.941406 "/><g clip-rule="nonzero" clip-path="url(#3400694f25)"><path style=" stroke:none;fill-rule:nonzero;fill:#333333;fill-opacity:1;" d="M 94.144531 43.414062 C 94.144531 43.414062 93.527344 42.835938 92.953125 42.300781 C 92.710938 42.078125 92.574219 41.757812 92.578125 41.425781 C 92.585938 40.574219 92.539062 38.769531 92.296875 38.03125 C 92.296875 38.03125 92.296875 38.03125 92.296875 38.027344 C 92.296875 38.027344 92.296875 38.023438 92.292969 38.023438 C 91.890625 36.789062 91.246094 35.671875 90.375 34.703125 C 88.597656 32.726562 86.0625 31.628906 83.421875 31.695312 C 81.144531 31.753906 78.957031 32.730469 77.261719 34.453125 C 75.5625 36.175781 74.601562 38.398438 74.546875 40.707031 C 74.480469 43.554688 75.679688 46.230469 77.835938 48.046875 C 78.757812 48.824219 79.132812 50.070312 78.785156 51.21875 C 78.484375 52.222656 78.015625 53.167969 77.761719 53.644531 C 77.710938 53.738281 77.746094 53.855469 77.835938 53.90625 C 77.929688 53.957031 78.042969 53.921875 78.09375 53.828125 C 78.355469 53.339844 78.835938 52.371094 79.152344 51.328125 C 79.539062 50.03125 79.121094 48.628906 78.078125 47.75 C 76.011719 46.011719 74.863281 43.445312 74.925781 40.71875 C 75.035156 36.148438 78.929688 32.191406 83.429688 32.082031 C 85.960938 32.019531 88.390625 33.070312 90.097656 34.964844 C 90.929688 35.890625 91.546875 36.960938 91.933594 38.144531 C 91.933594 38.144531 91.933594 38.144531 91.933594 38.148438 C 91.933594 38.148438 91.9375 38.152344 91.9375 38.152344 C 92.144531 38.792969 92.207031 40.457031 92.195312 41.421875 C 92.191406 41.863281 92.375 42.289062 92.695312 42.585938 C 93.269531 43.121094 93.882812 43.695312 93.882812 43.695312 C 94.097656 43.898438 94.1875 44.195312 94.117188 44.484375 C 94.050781 44.777344 93.839844 45 93.558594 45.082031 L 92.796875 45.3125 C 92.699219 45.339844 92.640625 45.4375 92.664062 45.535156 L 92.917969 46.734375 L 92.304688 47.277344 C 92.234375 47.339844 92.21875 47.441406 92.265625 47.523438 L 92.632812 48.132812 L 92.332031 48.730469 C 92.304688 48.777344 92.304688 48.835938 92.324219 48.886719 L 92.71875 49.9375 C 92.847656 50.277344 92.828125 50.65625 92.660156 50.980469 C 92.496094 51.304688 92.207031 51.539062 91.859375 51.625 C 91.328125 51.761719 89.628906 51.890625 88.296875 51.933594 C 87.851562 51.949219 87.464844 52.230469 87.3125 52.65625 C 87.191406 52.996094 87.066406 53.335938 86.941406 53.667969 C 86.90625 53.765625 86.953125 53.878906 87.054688 53.914062 C 87.074219 53.925781 87.097656 53.929688 87.121094 53.929688 C 87.195312 53.929688 87.269531 53.878906 87.296875 53.804688 C 87.421875 53.46875 87.546875 53.128906 87.667969 52.789062 C 87.765625 52.511719 88.019531 52.328125 88.308594 52.320312 C 89.449219 52.28125 91.335938 52.160156 91.953125 52 C 92.402344 51.886719 92.785156 51.578125 93 51.160156 C 93.214844 50.738281 93.242188 50.242188 93.074219 49.796875 L 92.707031 48.828125 L 93.019531 48.210938 C 93.046875 48.152344 93.046875 48.082031 93.011719 48.023438 L 92.675781 47.460938 L 93.253906 46.949219 C 93.304688 46.902344 93.328125 46.832031 93.3125 46.761719 L 93.070312 45.628906 L 93.667969 45.453125 C 94.082031 45.328125 94.386719 45 94.488281 44.574219 C 94.589844 44.148438 94.460938 43.714844 94.144531 43.414062 Z M 94.144531 43.414062 "/></g><g clip-rule="nonzero" clip-path="url(#3dc836d741)"><path style=" stroke:none;fill-rule:nonzero;fill:#fff8f1;fill-opacity:1;" d="M 105.757812 52.878906 C 105.757812 54.609375 105.675781 56.339844 105.503906 58.0625 C 105.335938 59.785156 105.082031 61.496094 104.742188 63.195312 C 104.40625 64.894531 103.984375 66.570312 103.480469 68.230469 C 102.980469 69.886719 102.394531 71.515625 101.734375 73.117188 C 101.070312 74.714844 100.332031 76.277344 99.515625 77.804688 C 98.699219 79.332031 97.808594 80.816406 96.847656 82.257812 C 95.886719 83.699219 94.855469 85.085938 93.753906 86.425781 C 92.65625 87.765625 91.496094 89.046875 90.269531 90.269531 C 89.046875 91.496094 87.765625 92.65625 86.425781 93.753906 C 85.085938 94.855469 83.699219 95.886719 82.257812 96.847656 C 80.816406 97.808594 79.332031 98.699219 77.804688 99.515625 C 76.277344 100.332031 74.714844 101.070312 73.117188 101.734375 C 71.515625 102.394531 69.886719 102.980469 68.230469 103.480469 C 66.570312 103.984375 64.894531 104.40625 63.195312 104.742188 C 61.496094 105.082031 59.785156 105.335938 58.0625 105.503906 C 56.339844 105.675781 54.609375 105.757812 52.878906 105.757812 C 51.148438 105.757812 49.417969 105.675781 47.695312 105.503906 C 45.972656 105.335938 44.261719 105.082031 42.5625 104.742188 C 40.863281 104.40625 39.1875 103.984375 37.53125 103.480469 C 35.871094 102.980469 34.242188 102.394531 32.644531 101.734375 C 31.042969 101.070312 29.480469 100.332031 27.953125 99.515625 C 26.425781 98.699219 24.941406 97.808594 23.5 96.847656 C 22.0625 95.886719 20.671875 94.855469 19.332031 93.753906 C 17.996094 92.65625 16.710938 91.496094 15.488281 90.269531 C 14.261719 89.046875 13.101562 87.765625 12.003906 86.425781 C 10.90625 85.085938 9.875 83.699219 8.910156 82.257812 C 7.949219 80.816406 7.058594 79.332031 6.242188 77.804688 C 5.425781 76.277344 4.6875 74.714844 4.023438 73.117188 C 3.363281 71.515625 2.78125 69.886719 2.277344 68.230469 C 1.773438 66.570312 1.355469 64.894531 1.015625 63.195312 C 0.679688 61.496094 0.425781 59.785156 0.253906 58.0625 C 0.0859375 56.339844 0 54.609375 0 52.878906 C 0 51.148438 0.0859375 49.417969 0.253906 47.695312 C 0.425781 45.972656 0.679688 44.261719 1.015625 42.5625 C 1.355469 40.863281 1.773438 39.1875 2.277344 37.53125 C 2.78125 35.871094 3.363281 34.242188 4.023438 32.644531 C 4.6875 31.042969 5.425781 29.480469 6.242188 27.953125 C 7.058594 26.425781 7.949219 24.941406 8.910156 23.5 C 9.875 22.0625 10.90625 20.671875 12.003906 19.332031 C 13.101562 17.996094 14.261719 16.710938 15.488281 15.488281 C 16.710938 14.261719 17.996094 13.101562 19.332031 12.003906 C 20.671875 10.90625 22.0625 9.875 23.5 8.910156 C 24.941406 7.949219 26.425781 7.058594 27.953125 6.242188 C 29.480469 5.425781 31.042969 4.6875 32.644531 4.023438 C 34.242188 3.363281 35.871094 2.78125 37.53125 2.277344 C 39.1875 1.773438 40.863281 1.355469 42.5625 1.015625 C 44.261719 0.679688 45.972656 0.425781 47.695312 0.253906 C 49.417969 0.0859375 51.148438 0 52.878906 0 C 54.609375 0 56.339844 0.0859375 58.0625 0.253906 C 59.785156 0.425781 61.496094 0.679688 63.195312 1.015625 C 64.894531 1.355469 66.570312 1.773438 68.230469 2.277344 C 69.886719 2.78125 71.515625 3.363281 73.117188 4.023438 C 74.714844 4.6875 76.277344 5.425781 77.804688 6.242188 C 79.332031 7.058594 80.816406 7.949219 82.257812 8.910156 C 83.699219 9.875 85.085938 10.90625 86.425781 12.003906 C 87.765625 13.101562 89.046875 14.261719 90.269531 15.488281 C 91.496094 16.710938 92.65625 17.996094 93.753906 19.332031 C 94.855469 20.671875 95.886719 22.0625 96.847656 23.5 C 97.808594 24.941406 98.699219 26.425781 99.515625 27.953125 C 100.332031 29.480469 101.070312 31.042969 101.734375 32.644531 C 102.394531 34.242188 102.980469 35.871094 103.480469 37.53125 C 103.984375 39.1875 104.40625 40.863281 104.742188 42.5625 C 105.082031 44.261719 105.335938 45.972656 105.503906 47.695312 C 105.675781 49.417969 105.757812 51.148438 105.757812 52.878906 Z M 105.757812 52.878906 "/></g><path style=" stroke:none;fill-rule:evenodd;fill:#000000;fill-opacity:1;" d="M 55.414062 54.601562 C 52.894531 54.601562 50.957031 52.65625 50.957031 50.234375 L 50.957031 34.464844 C 50.957031 28.683594 59.785156 28.683594 59.785156 34.464844 L 59.785156 40.296875 C 59.785156 41.339844 58.199219 41.339844 58.199219 40.296875 L 58.199219 34.464844 C 58.199219 30.765625 52.542969 30.765625 52.542969 34.464844 L 52.542969 50.234375 C 52.542969 53.914062 58.199219 53.914062 58.199219 50.234375 L 58.199219 46.6875 C 58.199219 45.644531 59.785156 45.644531 59.785156 46.6875 L 59.785156 50.234375 C 59.785156 52.644531 57.824219 54.605469 55.414062 54.605469 Z M 55.414062 54.601562 "/><path style=" stroke:none;fill-rule:evenodd;fill:#000000;fill-opacity:1;" d="M 48.632812 53.136719 C 46.375 53.136719 44.644531 51.394531 44.644531 49.226562 L 44.644531 35.472656 C 44.644531 30.292969 52.542969 30.292969 52.542969 35.472656 C 52.542969 36.515625 50.957031 36.515625 50.957031 35.472656 C 50.957031 32.382812 46.230469 32.382812 46.230469 35.472656 L 46.230469 49.226562 C 46.230469 52.300781 50.957031 52.300781 50.957031 49.226562 C 50.957031 48.179688 52.542969 48.183594 52.542969 49.226562 C 52.542969 51.382812 50.789062 53.136719 48.632812 53.136719 Z M 48.632812 53.136719 "/><path style=" stroke:none;fill-rule:evenodd;fill:#000000;fill-opacity:1;" d="M 42.332031 51.386719 C 40.097656 51.386719 38.363281 49.894531 38.363281 48.023438 L 38.363281 36.671875 C 38.363281 32.21875 46.226562 32.21875 46.226562 36.671875 C 46.226562 37.71875 44.640625 37.71875 44.640625 36.671875 C 44.640625 34.320312 39.949219 34.320312 39.949219 36.671875 L 39.949219 48.023438 C 39.949219 50.367188 44.640625 50.367188 44.640625 48.023438 C 44.640625 46.976562 46.226562 46.976562 46.226562 48.023438 C 46.226562 49.878906 44.480469 51.386719 42.332031 51.386719 Z M 42.332031 51.386719 "/><path style=" stroke:none;fill-rule:evenodd;fill:#000000;fill-opacity:1;" d="M 62.242188 53.3125 C 58.46875 53.3125 57.175781 48.550781 58.988281 48.550781 C 59.425781 48.550781 59.785156 48.90625 59.785156 49.34375 C 59.785156 52.539062 64.625 52.464844 64.621094 49.347656 C 64.621094 48.09375 64.347656 46.628906 65.414062 46.628906 C 66.480469 46.628906 66.207031 48.089844 66.207031 49.34375 C 66.210938 51.527344 64.425781 53.3125 62.242188 53.3125 Z M 65.414062 41.035156 C 64.976562 41.035156 64.621094 40.679688 64.621094 40.242188 L 64.621094 35.351562 C 64.621094 32.191406 59.785156 32.214844 59.785156 35.351562 C 59.785156 36.394531 58.199219 36.394531 58.199219 35.351562 C 58.199219 30.101562 66.210938 30.101562 66.210938 35.351562 L 66.210938 40.242188 C 66.207031 40.679688 65.855469 41.035156 65.414062 41.035156 Z M 65.414062 41.035156 "/><path style=" stroke:none;fill-rule:evenodd;fill:#000000;fill-opacity:1;" d="M 42.875 86.710938 C 42.414062 86.710938 42.046875 86.308594 42.085938 85.847656 L 43.683594 67.351562 C 40.8125 66.539062 38.625 65.027344 37.171875 62.855469 C 35.152344 59.828125 35.519531 57.449219 35.519531 54.445312 L 35.523438 41.964844 C 35.8125 39.050781 37.644531 37.371094 38.710938 36.628906 C 39.566406 36.03125 40.476562 37.332031 39.617188 37.929688 C 38.59375 38.640625 37.332031 39.9375 37.105469 42.085938 L 37.105469 54.445312 C 37.105469 57.300781 36.75 59.363281 38.492188 61.976562 C 39.824219 63.96875 41.917969 65.316406 44.714844 65.980469 C 45.097656 66.070312 45.355469 66.429688 45.320312 66.820312 L 43.667969 85.984375 C 43.628906 86.398438 43.285156 86.710938 42.875 86.710938 Z M 65.441406 86.710938 C 65.035156 86.710938 64.6875 86.398438 64.652344 85.984375 L 62.976562 66.59375 C 62.839844 64.984375 67.023438 65.9375 70.25 58.914062 C 71.203125 56.84375 71.234375 56.546875 71.234375 54.46875 L 71.234375 46.542969 C 70.445312 40.742188 66.191406 41.011719 66.007812 41.027344 C 63.417969 41.246094 58.851562 40.425781 57.253906 41.824219 C 55.726562 43.164062 56.753906 45.894531 59.109375 45.894531 L 63.667969 45.894531 C 67.648438 45.894531 68.152344 52.269531 66.722656 53.6875 C 64.101562 56.292969 64.378906 57.453125 64.378906 60.644531 C 64.378906 61.6875 62.792969 61.6875 62.792969 60.644531 C 62.792969 56.75 62.605469 55.742188 65.605469 52.566406 C 66.125 52.015625 66.039062 47.480469 63.667969 47.480469 L 59.109375 47.480469 C 53.921875 47.480469 52.941406 39.445312 59.933594 39.445312 L 65.933594 39.445312 C 66.507812 39.421875 71.894531 39.417969 72.816406 46.386719 L 72.824219 54.46875 C 72.824219 56.753906 72.746094 57.289062 71.695312 59.578125 C 70.546875 62.066406 68.402344 65.324219 64.605469 67.027344 L 66.230469 85.847656 C 66.269531 86.308594 65.90625 86.707031 65.441406 86.707031 Z M 65.441406 86.710938 "/><path style=" stroke:none;fill-rule:evenodd;fill:#000000;fill-opacity:1;" d="M 52.878906 27.722656 C 52.441406 27.722656 52.085938 27.367188 52.085938 26.929688 L 52.085938 19.839844 C 52.085938 18.796875 53.671875 18.796875 53.671875 19.839844 L 53.671875 26.929688 C 53.671875 27.367188 53.316406 27.722656 52.878906 27.722656 Z M 52.878906 27.722656 "/><path style=" stroke:none;fill-rule:evenodd;fill:#000000;fill-opacity:1;" d="M 61.894531 29.417969 C 61.378906 29.417969 60.992188 28.925781 61.128906 28.417969 L 62.953125 21.574219 C 63.222656 20.5625 64.753906 20.972656 64.484375 21.980469 L 62.660156 28.828125 C 62.566406 29.183594 62.246094 29.417969 61.894531 29.417969 Z M 61.894531 29.417969 "/><path style=" stroke:none;fill-rule:evenodd;fill:#000000;fill-opacity:1;" d="M 70.167969 33.398438 C 69.566406 33.398438 69.171875 32.746094 69.480469 32.210938 L 73.003906 26.070312 C 73.523438 25.167969 74.898438 25.957031 74.378906 26.863281 L 70.855469 33 C 70.707031 33.253906 70.441406 33.398438 70.167969 33.398438 Z M 70.167969 33.398438 "/><path style=" stroke:none;fill-rule:evenodd;fill:#000000;fill-opacity:1;" d="M 43.863281 29.417969 C 43.511719 29.417969 43.191406 29.183594 43.097656 28.828125 L 41.273438 21.980469 C 41.003906 20.96875 42.535156 20.566406 42.804688 21.574219 L 44.628906 28.417969 C 44.761719 28.925781 44.378906 29.417969 43.863281 29.417969 Z M 43.863281 29.417969 "/><path style=" stroke:none;fill-rule:evenodd;fill:#000000;fill-opacity:1;" d="M 35.59375 33.398438 C 35.316406 33.398438 35.050781 33.253906 34.902344 33 L 31.378906 26.863281 C 30.859375 25.957031 32.234375 25.167969 32.753906 26.070312 L 36.277344 32.210938 C 36.585938 32.742188 36.195312 33.398438 35.59375 33.398438 Z M 35.59375 33.398438 "/><path style=" stroke:none;fill-rule:evenodd;fill:#adcab1;fill-opacity:1;" d="M 43.664062 86.019531 L 64.65625 86.019531 C 64.652344 86.007812 64.652344 85.996094 64.652344 85.984375 L 62.976562 66.59375 C 62.839844 64.984375 67.023438 65.9375 70.25 58.914062 C 71.203125 56.84375 71.234375 56.546875 71.234375 54.46875 L 71.234375 46.542969 C 70.445312 40.742188 66.191406 41.011719 66.007812 41.027344 C 63.417969 41.246094 58.851562 40.425781 57.253906 41.824219 C 55.726562 43.164062 56.753906 45.894531 59.109375 45.894531 L 63.667969 45.894531 C 64.585938 45.894531 65.324219 46.234375 65.890625 46.777344 C 65.921875 46.804688 65.949219 46.832031 65.976562 46.863281 C 67.78125 48.703125 67.804688 52.617188 66.722656 53.691406 C 64.101562 56.292969 64.378906 57.457031 64.378906 60.644531 C 64.378906 61.6875 62.792969 61.6875 62.792969 60.644531 C 62.792969 56.75 62.605469 55.742188 65.605469 52.566406 C 65.78125 52.378906 65.886719 51.734375 65.859375 50.964844 C 65.238281 52.347656 63.847656 53.3125 62.242188 53.3125 C 61.007812 53.3125 60.039062 52.800781 59.355469 52.117188 C 58.652344 53.585938 57.148438 54.601562 55.414062 54.601562 C 53.566406 54.601562 52.03125 53.554688 51.34375 52.039062 C 50.640625 52.71875 49.683594 53.136719 48.632812 53.136719 C 46.867188 53.136719 45.421875 52.070312 44.878906 50.570312 C 44.195312 51.078125 43.304688 51.386719 42.332031 51.386719 C 40.097656 51.386719 38.363281 49.894531 38.363281 48.023438 L 38.363281 39.074219 C 37.753906 39.808594 37.242188 40.792969 37.105469 42.085938 L 37.105469 54.445312 C 37.105469 57.300781 36.75 59.363281 38.492188 61.976562 C 39.824219 63.96875 41.917969 65.316406 44.714844 65.980469 C 45.097656 66.070312 45.355469 66.429688 45.320312 66.820312 L 43.667969 85.984375 C 43.664062 85.996094 43.664062 86.007812 43.664062 86.019531 Z M 43.664062 86.019531 "/><path style=" stroke:none;fill-rule:evenodd;fill:#adcab1;fill-opacity:1;" d="M 52.542969 50.234375 C 52.542969 53.914062 58.199219 53.914062 58.199219 50.234375 L 58.199219 49.878906 C 58.171875 49.675781 58.171875 49.488281 58.199219 49.320312 L 58.199219 47.390625 C 54.261719 46.605469 53.5 40.777344 58.199219 39.636719 L 58.199219 34.464844 C 58.199219 30.765625 52.542969 30.765625 52.542969 34.464844 Z M 52.542969 50.234375 "/><path style=" stroke:none;fill-rule:evenodd;fill:#adcab1;fill-opacity:1;" d="M 50.957031 49.226562 L 50.957031 35.472656 C 50.957031 32.382812 46.230469 32.382812 46.230469 35.472656 L 46.226562 36.675781 L 46.226562 48.023438 L 46.230469 49.226562 C 46.230469 52.28125 50.894531 52.300781 50.957031 49.285156 Z M 50.957031 49.226562 "/><path style=" stroke:none;fill-rule:evenodd;fill:#adcab1;fill-opacity:1;" d="M 44.644531 47.984375 L 44.644531 36.710938 C 44.640625 36.699219 44.640625 36.6875 44.640625 36.671875 C 44.640625 34.320312 39.949219 34.320312 39.949219 36.671875 L 39.949219 37.160156 C 39.964844 37.257812 39.96875 37.355469 39.949219 37.449219 L 39.949219 48.023438 C 39.949219 50.367188 44.640625 50.367188 44.640625 48.023438 C 44.640625 48.007812 44.640625 47.996094 44.644531 47.984375 Z M 44.644531 47.984375 "/><path style=" stroke:none;fill-rule:evenodd;fill:#adcab1;fill-opacity:1;" d="M 59.785156 35.375 L 59.785156 39.445312 C 59.835938 39.445312 59.882812 39.445312 59.933594 39.445312 L 64.621094 39.445312 L 64.621094 35.351562 C 64.621094 32.191406 59.785156 32.214844 59.785156 35.351562 C 59.785156 35.359375 59.785156 35.367188 59.785156 35.375 Z M 59.785156 35.375 "/><path style=" stroke:none;fill-rule:evenodd;fill:#adcab1;fill-opacity:1;" d="M 63.667969 47.480469 L 59.785156 47.480469 L 59.78125 49.34375 L 59.785156 49.433594 C 59.871094 52.535156 64.625 52.433594 64.621094 49.34375 C 64.621094 48.8125 64.574219 48.242188 64.597656 47.765625 C 64.335938 47.585938 64.027344 47.480469 63.667969 47.480469 Z M 63.667969 47.480469 "/></g></svg>