<svg width="251" height="241" viewBox="0 0 251 241" fill="none" xmlns="http://www.w3.org/2000/svg">
<g filter="url(#filter0_d_67_8)">
<path d="M40 104.5C51.6036 95.4334 66.3927 90 82.5 90C99.8709 90 115.709 96.3195 127.671 106.7L121 96.7559L150.448 77L180.309 121.511L215.8 63L246.119 81.3906L202.09 153.978L241.838 213.225L212.39 232.98L181.814 187.405L154.319 232.735L124 214.345L135.811 194.873C123.46 210.163 104.173 220 82.5 220C66.3925 220 51.6036 214.566 40 205.499V220H4V0H40V104.5ZM201.477 184.394C198.095 179.536 193.516 176.877 191.249 178.455C188.983 180.033 189.887 185.25 193.268 190.107C195.348 193.095 197.881 195.25 200.051 196.1L218.7 222.893C219.602 224.187 221.383 224.507 222.678 223.605C223.973 222.704 224.292 220.922 223.391 219.627L204.739 192.832C204.695 190.503 203.555 187.38 201.477 184.394ZM82.5 110C55.7142 110 34 131.043 34 157C34 182.957 55.7142 204 82.5 204C109.286 204 131 182.957 131 157C131 131.043 109.286 110 82.5 110ZM146.827 135.255C148.887 141.482 150 148.116 150 155C150 163.874 148.152 172.331 144.809 180.037L160.033 154.938L146.827 135.255Z" fill="#E9E9E9"/>
</g>
<defs>
<filter id="filter0_d_67_8" x="0" y="0" width="250.119" height="240.98" filterUnits="userSpaceOnUse" color-interpolation-filters="sRGB">
<feFlood flood-opacity="0" result="BackgroundImageFix"/>
<feColorMatrix in="SourceAlpha" type="matrix" values="0 0 0 0 0 0 0 0 0 0 0 0 0 0 0 0 0 0 127 0" result="hardAlpha"/>
<feOffset dy="4"/>
<feGaussianBlur stdDeviation="2"/>
<feComposite in2="hardAlpha" operator="out"/>
<feColorMatrix type="matrix" values="0 0 0 0 0 0 0 0 0 0 0 0 0 0 0 0 0 0 0.25 0"/>
<feBlend mode="normal" in2="BackgroundImageFix" result="effect1_dropShadow_67_8"/>
<feBlend mode="normal" in="SourceGraphic" in2="effect1_dropShadow_67_8" result="shape"/>
</filter>
</defs>
</svg>
